<svg width="56" height="48" viewBox="0 0 56 48" fill="none" xmlns="http://www.w3.org/2000/svg">
<path d="M26 18L25.9998 17.0004C25.9996 15.8957 26.8951 15 27.9998 15V15C29.1042 15 29.9996 15.8952 29.9998 16.9996L30 18M29.9994 30.5H33.4333C35.0267 30.5 35.8833 28.6282 34.8418 27.4224L34.1296 26.5978C33.2486 25.5777 32.8256 24.2404 32.9598 22.8992V22.8992C33.249 20.0085 30.979 17.5 28.0738 17.5H27.9264C25.021 17.5 22.7507 20.0085 23.0396 22.8995V22.8995C23.1737 24.2405 22.7507 25.5777 21.8699 26.5977L21.1579 27.4221C20.1164 28.6282 20.9732 30.5 22.5667 30.5H25.9994M29.9994 30.5V31C29.9994 32.1046 29.104 33 27.9994 33V33C26.8948 33 25.9994 32.1046 25.9994 31V30.5M29.9994 30.5H25.9994" stroke="#010101" stroke-width="1.5" stroke-linejoin="round"/>
</svg>
