<svg width="48" height="48" viewBox="0 0 48 48" fill="none" xmlns="http://www.w3.org/2000/svg">
<rect width="48" height="48" rx="24" fill="#E5B30C"/>
<path d="M17 31V22.2C17 19.2002 17 17.7003 17.7639 16.6489C18.0107 16.3093 18.3093 16.0107 18.6489 15.7639C19.7003 15 21.2002 15 24.2 15H29.2C29.9499 15 30.3249 15 30.5878 15.191C30.6727 15.2527 30.7473 15.3273 30.809 15.4122C31 15.6751 31 16.0501 31 16.8V31M21 19H27M21 22H25M18.5 33H29.5C29.9659 33 30.1989 33 30.3827 32.9239C30.6277 32.8224 30.8224 32.6277 30.9239 32.3827C31 32.1989 31 31.9659 31 31.5V31.5C31 31.0341 31 30.8011 30.9239 30.6173C30.8224 30.3723 30.6277 30.1776 30.3827 30.0761C30.1989 30 29.9659 30 29.5 30H18.5C17.6716 30 17 30.6716 17 31.5V31.5C17 32.3284 17.6716 33 18.5 33Z" stroke="white" stroke-width="1.5" stroke-linecap="round" stroke-linejoin="round"/>
</svg>
