<svg width="24" height="25" viewBox="0 0 24 25" fill="none" xmlns="http://www.w3.org/2000/svg">
<path d="M5 19.5V10.7C5 7.70021 5 6.20032 5.76393 5.14886C6.01065 4.80928 6.30928 4.51065 6.64886 4.26393C7.70032 3.5 9.20021 3.5 12.2 3.5H17.2C17.9499 3.5 18.3249 3.5 18.5878 3.69098C18.6727 3.75266 18.7473 3.82732 18.809 3.91221C19 4.17508 19 4.55005 19 5.3V19.5M9 7.5H15M9 10.5H13M6.5 21.5H17.5C17.9659 21.5 18.1989 21.5 18.3827 21.4239C18.6277 21.3224 18.8224 21.1277 18.9239 20.8827C19 20.6989 19 20.4659 19 20V20C19 19.5341 19 19.3011 18.9239 19.1173C18.8224 18.8723 18.6277 18.6776 18.3827 18.5761C18.1989 18.5 17.9659 18.5 17.5 18.5H6.5C5.67157 18.5 5 19.1716 5 20V20C5 20.8284 5.67157 21.5 6.5 21.5Z" stroke="#E5B30C" stroke-width="1.5" stroke-linecap="round" stroke-linejoin="round"/>
</svg>
