<svg width="56" height="48" viewBox="0 0 56 48" fill="none" xmlns="http://www.w3.org/2000/svg">
<path d="M25.5 31C25.5 31.8284 24.8284 32.5 24 32.5C23.1716 32.5 22.5 31.8284 22.5 31C22.5 30.1716 23.1716 29.5 24 29.5C24.8284 29.5 25.5 30.1716 25.5 31Z" stroke="#010101" stroke-width="1.5" stroke-linecap="round" stroke-linejoin="round"/>
<path d="M33.5 31C33.5 31.8284 32.8284 32.5 32 32.5C31.1716 32.5 30.5 31.8284 30.5 31C30.5 30.1716 31.1716 29.5 32 29.5C32.8284 29.5 33.5 30.1716 33.5 31Z" stroke="#010101" stroke-width="1.5" stroke-linecap="round" stroke-linejoin="round"/>
<path d="M19 14.75C18.5858 14.75 18.25 15.0858 18.25 15.5C18.25 15.9142 18.5858 16.25 19 16.25V14.75ZM34.459 25.3703L33.7918 25.0277L34.459 25.3703ZM24 18.25H33.5873V16.75H24V18.25ZM35.5889 21.5277L33.7918 25.0277L35.1262 25.7128L36.9233 22.2128L35.5889 21.5277ZM31.7903 26.25H24V27.75H31.7903V26.25ZM21.75 24V23.5H20.25V24H21.75ZM21.75 23.5V20.5H20.25V23.5H21.75ZM21.75 23.5V17.5H20.25V23.5H21.75ZM24 26.25C22.7574 26.25 21.75 25.2426 21.75 24H20.25C20.25 26.0711 21.9289 27.75 24 27.75V26.25ZM33.7918 25.0277C33.4065 25.7781 32.6338 26.25 31.7903 26.25V27.75C33.1962 27.75 34.484 26.9636 35.1262 25.7128L33.7918 25.0277ZM33.5873 18.25C35.2705 18.25 36.3577 20.0304 35.5889 21.5277L36.9233 22.2128C38.2046 19.7173 36.3926 16.75 33.5873 16.75V18.25ZM21.75 17.5C21.75 15.9812 20.5188 14.75 19 14.75V16.25C19.6904 16.25 20.25 16.8096 20.25 17.5H21.75ZM24 16.75C21.9289 16.75 20.25 18.4289 20.25 20.5H21.75C21.75 19.2574 22.7574 18.25 24 18.25V16.75Z" fill="#010101"/>
</svg>
