<svg width="48" height="48" viewBox="0 0 48 48" fill="none" xmlns="http://www.w3.org/2000/svg">
<rect x="0.5" y="0.5" width="47" height="47" rx="23.5" fill="white"/>
<rect x="0.5" y="0.5" width="47" height="47" rx="23.5" stroke="#010101"/>
<path fill-rule="evenodd" clip-rule="evenodd" d="M17 15.77C17.0054 15.358 17.338 15.0254 17.75 15.02L17.74 15C18.1542 15 18.49 15.3358 18.49 15.75V16.07H24.75C25.6581 16.0188 26.4363 16.7121 26.49 17.62V17.7C26.5437 18.6079 27.3219 19.3012 28.23 19.25H29.14C30.0427 19.1983 30.8207 19.8785 30.89 20.78V26.08C30.8363 26.9879 30.0581 27.6812 29.15 27.63H23.15C22.2419 27.6812 21.4637 26.9879 21.41 26.08V26.02C21.3563 25.1121 20.5781 24.4188 19.67 24.47H18.5V32.77C18.5 33.1842 18.1642 33.52 17.75 33.52C17.3358 33.52 17 33.1842 17 32.77V15.77ZM24.9 17.66C24.851 17.6458 24.799 17.6458 24.75 17.66V17.68H18.59V22.9H19.67C21.4185 22.8538 22.888 24.2038 22.99 25.95C23.0396 25.9588 23.0904 25.9588 23.14 25.95H29.14C29.1896 25.9588 29.2404 25.9588 29.29 25.95V20.78C29.241 20.7658 29.189 20.7658 29.14 20.78H28.23C26.4517 20.8306 24.9652 19.4379 24.9 17.66Z" fill="#010101"/>
</svg>
