<svg width="135" height="40" viewBox="0 0 135 40" fill="none" xmlns="http://www.w3.org/2000/svg">
<g clip-path="url(#clip0_272_6183)">
<path d="M130 0H5C2.23858 0 0 2.23858 0 5V35C0 37.7614 2.23858 40 5 40H130C132.761 40 135 37.7614 135 35V5C135 2.23858 132.761 0 130 0Z" fill="black"/>
<path d="M130 0.8C131.114 0.8 132.182 1.2425 132.97 2.03015C133.758 2.8178 134.2 3.88609 134.2 5V35C134.2 36.1139 133.758 37.1822 132.97 37.9698C132.182 38.7575 131.114 39.2 130 39.2H5C3.88609 39.2 2.8178 38.7575 2.03015 37.9698C1.2425 37.1822 0.8 36.1139 0.8 35V5C0.8 3.88609 1.2425 2.8178 2.03015 2.03015C2.8178 1.2425 3.88609 0.8 5 0.8H130ZM130 0H5C3.67392 0 2.40215 0.526784 1.46447 1.46447C0.526784 2.40215 0 3.67392 0 5V35C0 36.3261 0.526784 37.5979 1.46447 38.5355C2.40215 39.4732 3.67392 40 5 40H130C131.326 40 132.598 39.4732 133.536 38.5355C134.473 37.5979 135 36.3261 135 35V5C135 3.67392 134.473 2.40215 133.536 1.46447C132.598 0.526784 131.326 0 130 0Z" fill="#A6A6A6"/>
<path d="M44.4535 10.4858H46.4871V13.3951C46.1707 13.496 45.8488 13.5724 45.5214 13.6242C45.1941 13.676 44.8149 13.702 44.3839 13.702C43.4783 13.702 42.7731 13.4333 42.2685 12.8959C41.7638 12.3558 41.5115 11.6001 41.5115 10.629C41.5115 10.0071 41.6356 9.46285 41.8838 8.99639C42.1348 8.52719 42.4949 8.16984 42.9641 7.92434C43.4333 7.6761 43.9829 7.55198 44.6131 7.55198C45.2514 7.55198 45.8461 7.66928 46.3971 7.90388L46.127 8.51765C45.5869 8.28851 45.0672 8.17394 44.568 8.17394C43.8397 8.17394 43.2709 8.3908 42.8618 8.82453C42.4526 9.25826 42.248 9.85976 42.248 10.629C42.248 11.4365 42.4444 12.0489 42.8372 12.4662C43.2328 12.8836 43.8124 13.0923 44.5762 13.0923C44.9909 13.0923 45.396 13.0445 45.7915 12.9491V11.1078H44.4535V10.4858ZM51.2622 13.6201H47.9274V7.63791H51.2622V8.25577H48.623V10.183H51.1026V10.7968H48.623V12.9982H51.2622V13.6201ZM54.4334 13.6201H53.7378V8.25577H51.8433V7.63791H56.3279V8.25577H54.4334V13.6201ZM59.409 13.6201V7.63791H60.1046V13.6201H59.409ZM63.5908 13.6201H62.8952V8.25577H61.0007V7.63791H65.4853V8.25577H63.5908V13.6201ZM73.7589 10.6208C73.7589 11.5783 73.5161 12.3312 73.0306 12.8795C72.5478 13.4278 71.8753 13.702 71.0133 13.702C70.1322 13.702 69.4516 13.4333 68.9715 12.8959C68.4941 12.3558 68.2555 11.5947 68.2555 10.6126C68.2555 9.6388 68.4955 8.88454 68.9756 8.34988C69.4557 7.81249 70.1377 7.5438 71.0215 7.5438C71.8808 7.5438 72.5518 7.81659 73.0347 8.36216C73.5175 8.90773 73.7589 9.66062 73.7589 10.6208ZM68.992 10.6208C68.992 11.431 69.1638 12.0461 69.5075 12.4662C69.854 12.8836 70.3559 13.0923 71.0133 13.0923C71.6762 13.0923 72.1768 12.8836 72.515 12.4662C72.8533 12.0489 73.0224 11.4337 73.0224 10.6208C73.0224 9.81611 72.8533 9.20643 72.515 8.7918C72.1795 8.37443 71.6817 8.16575 71.0215 8.16575C70.3586 8.16575 69.854 8.3758 69.5075 8.79589C69.1638 9.21325 68.992 9.82157 68.992 10.6208ZM79.7698 13.6201H78.976L75.7066 8.59948H75.6739C75.7175 9.1887 75.7394 9.72882 75.7394 10.2198V13.6201H75.0969V7.63791H75.8826L79.1437 12.6381H79.1765C79.171 12.5644 79.1587 12.3285 79.1396 11.9302C79.1205 11.5292 79.1137 11.2428 79.1192 11.0709V7.63791H79.7698V13.6201Z" fill="white"/>
<path d="M44.4535 10.4858V10.3858H44.3535V10.4858H44.4535ZM46.4871 10.4858H46.5871V10.3858H46.4871V10.4858ZM46.4871 13.3951L46.5175 13.4903L46.5871 13.4681V13.3951H46.4871ZM42.2685 12.8959L42.1954 12.9641L42.1956 12.9643L42.2685 12.8959ZM41.8838 8.99639L41.7956 8.94922L41.7956 8.94941L41.8838 8.99639ZM42.9641 7.92434L43.0104 8.01294L43.0108 8.01273L42.9641 7.92434ZM46.3971 7.90388L46.4886 7.94415L46.5294 7.85151L46.4363 7.81187L46.3971 7.90388ZM46.127 8.51765L46.088 8.6097L46.1788 8.64824L46.2186 8.55792L46.127 8.51765ZM42.8372 12.4662L42.7644 12.5348L42.7646 12.535L42.8372 12.4662ZM45.7915 12.9491L45.815 13.0463L45.8915 13.0278V12.9491H45.7915ZM45.7915 11.1078H45.8915V11.0078H45.7915V11.1078ZM44.4535 11.1078H44.3535V11.2078H44.4535V11.1078ZM44.4535 10.5858H46.4871V10.3858H44.4535V10.5858ZM46.3871 10.4858V13.3951H46.5871V10.4858H46.3871ZM46.4567 13.2998C46.1451 13.3992 45.8281 13.4744 45.5058 13.5254L45.5371 13.723C45.8694 13.6704 46.1962 13.5928 46.5175 13.4903L46.4567 13.2998ZM45.5058 13.5254C45.1849 13.5762 44.8111 13.602 44.3839 13.602V13.802C44.8187 13.802 45.2033 13.7758 45.5371 13.723L45.5058 13.5254ZM44.3839 13.602C43.4991 13.602 42.8229 13.3402 42.3414 12.8274L42.1956 12.9643C42.7233 13.5263 43.4574 13.802 44.3839 13.802V13.602ZM42.3415 12.8276C41.859 12.3112 41.6115 11.583 41.6115 10.629H41.4115C41.4115 11.6173 41.6686 12.4003 42.1954 12.9641L42.3415 12.8276ZM41.6115 10.629C41.6115 10.0205 41.7328 9.49301 41.9721 9.04337L41.7956 8.94941C41.5384 9.4327 41.4115 9.99358 41.4115 10.629H41.6115ZM41.972 9.04355C42.2136 8.59196 42.5591 8.2491 43.0104 8.01294L42.9177 7.83573C42.4306 8.09059 42.056 8.46242 41.7956 8.94922L41.972 9.04355ZM43.0108 8.01273C43.4631 7.77342 43.9962 7.65198 44.6131 7.65198V7.45198C43.9697 7.45198 43.4034 7.57878 42.9173 7.83594L43.0108 8.01273ZM44.6131 7.65198C45.2388 7.65198 45.8201 7.7669 46.3579 7.99589L46.4363 7.81187C45.872 7.57166 45.2639 7.45198 44.6131 7.45198V7.65198ZM46.3055 7.8636L46.0355 8.47737L46.2186 8.55792L46.4886 7.94415L46.3055 7.8636ZM46.1661 8.42559C45.6157 8.19211 45.0828 8.07394 44.568 8.07394V8.27394C45.0517 8.27394 45.5581 8.3849 46.088 8.6097L46.1661 8.42559ZM44.568 8.07394C43.8187 8.07394 43.2212 8.29784 42.789 8.75591L42.9345 8.89315C43.3207 8.48376 43.8607 8.27394 44.568 8.27394V8.07394ZM42.789 8.75591C42.3577 9.21311 42.148 9.84191 42.148 10.629H42.348C42.348 9.8776 42.5475 9.30341 42.9345 8.89315L42.789 8.75591ZM42.148 10.629C42.148 11.4515 42.3481 12.0924 42.7644 12.5348L42.91 12.3977C42.5407 12.0053 42.348 11.4214 42.348 10.629H42.148ZM42.7646 12.535C43.1847 12.9782 43.7944 13.1923 44.5762 13.1923V12.9923C43.8305 12.9923 43.2808 12.789 42.9098 12.3974L42.7646 12.535ZM44.5762 13.1923C44.9986 13.1923 45.4116 13.1436 45.815 13.0463L45.768 12.8519C45.3803 12.9454 44.9831 12.9923 44.5762 12.9923V13.1923ZM45.8915 12.9491V11.1078H45.6915V12.9491H45.8915ZM45.7915 11.0078H44.4535V11.2078H45.7915V11.0078ZM44.5535 11.1078V10.4858H44.3535V11.1078H44.5535ZM51.2622 13.6201V13.7201H51.3622V13.6201H51.2622ZM47.9274 13.6201H47.8274V13.7201H47.9274V13.6201ZM47.9274 7.63791V7.53791H47.8274V7.63791H47.9274ZM51.2622 7.63791H51.3622V7.53791H51.2622V7.63791ZM51.2622 8.25577V8.35577H51.3622V8.25577H51.2622ZM48.623 8.25577V8.15577H48.523V8.25577H48.623ZM48.623 10.183H48.523V10.283H48.623V10.183ZM51.1026 10.183H51.2026V10.083H51.1026V10.183ZM51.1026 10.7968V10.8968H51.2026V10.7968H51.1026ZM48.623 10.7968V10.6968H48.523V10.7968H48.623ZM48.623 12.9982H48.523V13.0982H48.623V12.9982ZM51.2622 12.9982H51.3622V12.8982H51.2622V12.9982ZM51.2622 13.5201H47.9274V13.7201H51.2622V13.5201ZM48.0274 13.6201V7.63791H47.8274V13.6201H48.0274ZM47.9274 7.73791H51.2622V7.53791H47.9274V7.73791ZM51.1622 7.63791V8.25577H51.3622V7.63791H51.1622ZM51.2622 8.15577H48.623V8.35577H51.2622V8.15577ZM48.523 8.25577V10.183H48.723V8.25577H48.523ZM48.623 10.283H51.1026V10.083H48.623V10.283ZM51.0026 10.183V10.7968H51.2026V10.183H51.0026ZM51.1026 10.6968H48.623V10.8968H51.1026V10.6968ZM48.523 10.7968V12.9982H48.723V10.7968H48.523ZM48.623 13.0982H51.2622V12.8982H48.623V13.0982ZM51.1622 12.9982V13.6201H51.3622V12.9982H51.1622ZM54.4334 13.6201V13.7201H54.5334V13.6201H54.4334ZM53.7378 13.6201H53.6378V13.7201H53.7378V13.6201ZM53.7378 8.25577H53.8378V8.15577H53.7378V8.25577ZM51.8433 8.25577H51.7433V8.35577H51.8433V8.25577ZM51.8433 7.63791V7.53791H51.7433V7.63791H51.8433ZM56.3279 7.63791H56.4279V7.53791H56.3279V7.63791ZM56.3279 8.25577V8.35577H56.4279V8.25577H56.3279ZM54.4334 8.25577V8.15577H54.3334V8.25577H54.4334ZM54.4334 13.5201H53.7378V13.7201H54.4334V13.5201ZM53.8378 13.6201V8.25577H53.6378V13.6201H53.8378ZM53.7378 8.15577H51.8433V8.35577H53.7378V8.15577ZM51.9433 8.25577V7.63791H51.7433V8.25577H51.9433ZM51.8433 7.73791H56.3279V7.53791H51.8433V7.73791ZM56.2279 7.63791V8.25577H56.4279V7.63791H56.2279ZM56.3279 8.15577H54.4334V8.35577H56.3279V8.15577ZM54.3334 8.25577V13.6201H54.5334V8.25577H54.3334ZM59.409 13.6201H59.309V13.7201H59.409V13.6201ZM59.409 7.63791V7.53791H59.309V7.63791H59.409ZM60.1046 7.63791H60.2046V7.53791H60.1046V7.63791ZM60.1046 13.6201V13.7201H60.2046V13.6201H60.1046ZM59.509 13.6201V7.63791H59.309V13.6201H59.509ZM59.409 7.73791H60.1046V7.53791H59.409V7.73791ZM60.0046 7.63791V13.6201H60.2046V7.63791H60.0046ZM60.1046 13.5201H59.409V13.7201H60.1046V13.5201ZM63.5908 13.6201V13.7201H63.6908V13.6201H63.5908ZM62.8952 13.6201H62.7952V13.7201H62.8952V13.6201ZM62.8952 8.25577H62.9952V8.15577H62.8952V8.25577ZM61.0007 8.25577H60.9007V8.35577H61.0007V8.25577ZM61.0007 7.63791V7.53791H60.9007V7.63791H61.0007ZM65.4853 7.63791H65.5853V7.53791H65.4853V7.63791ZM65.4853 8.25577V8.35577H65.5853V8.25577H65.4853ZM63.5908 8.25577V8.15577H63.4908V8.25577H63.5908ZM63.5908 13.5201H62.8952V13.7201H63.5908V13.5201ZM62.9952 13.6201V8.25577H62.7952V13.6201H62.9952ZM62.8952 8.15577H61.0007V8.35577H62.8952V8.15577ZM61.1007 8.25577V7.63791H60.9007V8.25577H61.1007ZM61.0007 7.73791H65.4853V7.53791H61.0007V7.73791ZM65.3853 7.63791V8.25577H65.5853V7.63791H65.3853ZM65.4853 8.15577H63.5908V8.35577H65.4853V8.15577ZM63.4908 8.25577V13.6201H63.6908V8.25577H63.4908ZM73.0306 12.8795L72.9557 12.8132L72.9555 12.8134L73.0306 12.8795ZM68.9715 12.8959L68.8966 12.9621L68.8969 12.9625L68.9715 12.8959ZM68.9756 8.34988L69.05 8.4167L69.0502 8.41651L68.9756 8.34988ZM69.5075 12.4662L69.4302 12.5296L69.4306 12.5301L69.5075 12.4662ZM72.515 8.7918L72.4371 8.85445L72.4375 8.85501L72.515 8.7918ZM69.5075 8.79589L69.4304 8.73227L69.4304 8.73232L69.5075 8.79589ZM73.6589 10.6208C73.6589 11.5616 73.4206 12.2882 72.9557 12.8132L73.1054 12.9458C73.6117 12.3742 73.8589 11.5951 73.8589 10.6208H73.6589ZM72.9555 12.8134C72.4951 13.3362 71.8523 13.602 71.0133 13.602V13.802C71.8984 13.802 72.6004 13.5194 73.1056 12.9456L72.9555 12.8134ZM71.0133 13.602C70.1538 13.602 69.5031 13.3408 69.0461 12.8292L68.8969 12.9625C69.4002 13.5258 70.1106 13.802 71.0133 13.802V13.602ZM69.0465 12.8296C68.5903 12.3135 68.3555 11.5792 68.3555 10.6126H68.1555C68.1555 11.6102 68.398 12.398 68.8966 12.9621L69.0465 12.8296ZM68.3555 10.6126C68.3555 9.65461 68.5915 8.92734 69.05 8.4167L68.9012 8.28307C68.3995 8.84175 68.1555 9.62299 68.1555 10.6126H68.3555ZM69.0502 8.41651C69.5071 7.90506 70.1592 7.6438 71.0215 7.6438V7.4438C70.1162 7.4438 69.4043 7.71993 68.901 8.28326L69.0502 8.41651ZM71.0215 7.6438C71.8578 7.6438 72.4994 7.9082 72.9598 8.42843L73.1096 8.29588C72.6043 7.72497 71.9038 7.4438 71.0215 7.4438V7.6438ZM72.9598 8.42843C73.4219 8.95056 73.6589 9.67713 73.6589 10.6208H73.8589C73.8589 9.64412 73.6131 8.86491 73.1096 8.29588L72.9598 8.42843ZM68.892 10.6208C68.892 11.4431 69.0661 12.0846 69.4302 12.5296L69.5849 12.4029C69.2615 12.0076 69.092 11.4189 69.092 10.6208H68.892ZM69.4306 12.5301C69.8001 12.9752 70.3331 13.1923 71.0133 13.1923V12.9923C70.3787 12.9923 69.9079 12.792 69.5845 12.4024L69.4306 12.5301ZM71.0133 13.1923C71.6986 13.1923 72.2311 12.9754 72.5927 12.5292L72.4373 12.4033C72.1225 12.7918 71.6538 12.9923 71.0133 12.9923V13.1923ZM72.5927 12.5292C72.9512 12.0869 73.1224 11.4454 73.1224 10.6208H72.9224C72.9224 11.4221 72.7554 12.0108 72.4373 12.4033L72.5927 12.5292ZM73.1224 10.6208C73.1224 9.80421 72.9511 9.16812 72.5925 8.72858L72.4375 8.85501C72.7555 9.24474 72.9224 9.82801 72.9224 10.6208H73.1224ZM72.593 8.72914C72.2341 8.28272 71.7042 8.06575 71.0215 8.06575V8.26575C71.6591 8.26575 72.1249 8.46615 72.4371 8.85445L72.593 8.72914ZM71.0215 8.06575C70.3359 8.06575 69.8 8.28415 69.4304 8.73227L69.5847 8.85951C69.908 8.46745 70.3814 8.26575 71.0215 8.26575V8.06575ZM69.4304 8.73232C69.0663 9.17441 68.892 9.8091 68.892 10.6208H69.092C69.092 9.83403 69.2614 9.25209 69.5847 8.85946L69.4304 8.73232ZM79.7698 13.6201V13.7201H79.8698V13.6201H79.7698ZM78.976 13.6201L78.8922 13.6747L78.9218 13.7201H78.976V13.6201ZM75.7066 8.59948L75.7904 8.54491L75.7608 8.49948H75.7066V8.59948ZM75.6739 8.59948V8.49948H75.5662L75.5742 8.60687L75.6739 8.59948ZM75.7394 13.6201V13.7201H75.8394V13.6201H75.7394ZM75.0969 13.6201H74.9969V13.7201H75.0969V13.6201ZM75.0969 7.63791V7.53791H74.9969V7.63791H75.0969ZM75.8826 7.63791L75.9663 7.58328L75.9367 7.53791H75.8826V7.63791ZM79.1437 12.6381L79.06 12.6927L79.0896 12.7381H79.1437V12.6381ZM79.1765 12.6381V12.7381H79.2841L79.2762 12.6307L79.1765 12.6381ZM79.1396 11.9302L79.0398 11.935L79.0398 11.935L79.1396 11.9302ZM79.1192 11.0709L79.2192 11.0741V11.0709H79.1192ZM79.1192 7.63791V7.53791H79.0192V7.63791H79.1192ZM79.7698 7.63791H79.8698V7.53791H79.7698V7.63791ZM79.7698 13.5201H78.976V13.7201H79.7698V13.5201ZM79.0598 13.5655L75.7904 8.54491L75.6228 8.65405L78.8922 13.6747L79.0598 13.5655ZM75.7066 8.49948H75.6739V8.69948H75.7066V8.49948ZM75.5742 8.60687C75.6177 9.19411 75.6394 9.73172 75.6394 10.2198H75.8394C75.8394 9.72592 75.8174 9.1833 75.7736 8.5921L75.5742 8.60687ZM75.6394 10.2198V13.6201H75.8394V10.2198H75.6394ZM75.7394 13.5201H75.0969V13.7201H75.7394V13.5201ZM75.1969 13.6201V7.63791H74.9969V13.6201H75.1969ZM75.0969 7.73791H75.8826V7.53791H75.0969V7.73791ZM75.7988 7.69254L79.06 12.6927L79.2275 12.5835L75.9663 7.58328L75.7988 7.69254ZM79.1437 12.7381H79.1765V12.5381H79.1437V12.7381ZM79.2762 12.6307C79.2709 12.5587 79.2587 12.3244 79.2395 11.9254L79.0398 11.935C79.0588 12.3325 79.0712 12.5702 79.0767 12.6455L79.2762 12.6307ZM79.2395 11.9254C79.2204 11.5246 79.2138 11.2416 79.2191 11.0741L79.0192 11.0678C79.0136 11.2439 79.0207 11.5339 79.0398 11.935L79.2395 11.9254ZM79.2192 11.0709V7.63791H79.0192V11.0709H79.2192ZM79.1192 7.73791H79.7698V7.53791H79.1192V7.73791ZM79.6698 7.63791V13.6201H79.8698V7.63791H79.6698Z" fill="white"/>
<path d="M68.14 21.7499C67.2974 21.7519 66.4744 22.0037 65.7749 22.4734C65.0755 22.9432 64.531 23.6098 64.2104 24.3889C63.8898 25.1681 63.8075 26.0248 63.9738 26.8508C64.1401 27.6768 64.5476 28.4349 65.1448 29.0293C65.742 29.6236 66.502 30.0276 67.3287 30.19C68.1555 30.3524 69.0118 30.2661 69.7895 29.9418C70.5671 29.6175 71.2311 29.07 71.6976 28.3683C72.164 27.6667 72.412 26.8425 72.41 25.9999C72.4181 25.4379 72.3131 24.8799 72.1012 24.3593C71.8892 23.8386 71.5746 23.366 71.1762 22.9694C70.7778 22.5729 70.3037 22.2606 69.7821 22.051C69.2604 21.8415 68.702 21.7391 68.14 21.7499ZM68.14 28.5799C67.6236 28.616 67.1082 28.496 66.6609 28.2353C66.2137 27.9747 65.8552 27.5855 65.632 27.1184C65.4088 26.6512 65.3314 26.1278 65.4097 25.6161C65.4879 25.1043 65.7184 24.628 66.0709 24.249C66.4235 23.8699 66.882 23.6057 67.3867 23.4907C67.8915 23.3757 68.4192 23.4152 68.9012 23.604C69.3832 23.7929 69.7972 24.1223 70.0895 24.5496C70.3818 24.9769 70.5387 25.4822 70.54 25.9999C70.5561 26.3279 70.5063 26.6559 70.3937 26.9643C70.2811 27.2728 70.1078 27.5556 69.8841 27.7961C69.6604 28.0366 69.3909 28.2298 69.0913 28.3644C68.7918 28.499 68.4683 28.5723 68.14 28.5799ZM58.82 21.7499C57.9774 21.7519 57.1544 22.0037 56.4549 22.4734C55.7555 22.9432 55.211 23.6098 54.8904 24.3889C54.5698 25.1681 54.4875 26.0248 54.6538 26.8508C54.8201 27.6768 55.2276 28.4349 55.8248 29.0293C56.422 29.6236 57.182 30.0276 58.0087 30.19C58.8355 30.3524 59.6918 30.2661 60.4695 29.9418C61.2471 29.6175 61.9111 29.07 62.3776 28.3683C62.844 27.6667 63.0919 26.8425 63.09 25.9999C63.0981 25.4379 62.9931 24.8799 62.7812 24.3593C62.5692 23.8386 62.2546 23.366 61.8562 22.9694C61.4578 22.5729 60.9837 22.2606 60.4621 22.051C59.9404 21.8415 59.382 21.7391 58.82 21.7499ZM58.82 28.5799C58.3036 28.616 57.7882 28.496 57.3409 28.2353C56.8937 27.9747 56.5352 27.5855 56.312 27.1184C56.0888 26.6512 56.0114 26.1278 56.0897 25.6161C56.1679 25.1043 56.3984 24.628 56.7509 24.249C57.1035 23.8699 57.562 23.6057 58.0667 23.4907C58.5715 23.3757 59.0992 23.4152 59.5812 23.604C60.0632 23.7929 60.4772 24.1223 60.7695 24.5496C61.0618 24.9769 61.2187 25.4822 61.22 25.9999C61.2361 26.3279 61.1863 26.6559 61.0737 26.9643C60.9611 27.2728 60.7878 27.5556 60.5641 27.7961C60.3404 28.0366 60.0709 28.2298 59.7713 28.3644C59.4718 28.499 59.1483 28.5723 58.82 28.5799ZM47.74 23.0599V24.8599H52.06C51.9922 25.7077 51.6398 26.5077 51.06 27.1299C50.6266 27.5714 50.1054 27.9171 49.5301 28.1444C48.9547 28.3718 48.3381 28.4759 47.72 28.4499C46.4469 28.4499 45.226 27.9442 44.3259 27.044C43.4257 26.1439 42.92 24.923 42.92 23.6499C42.92 22.3769 43.4257 21.156 44.3259 20.2558C45.226 19.3556 46.4469 18.8499 47.72 18.8499C48.9404 18.8318 50.1189 19.2952 51 20.1399L52.27 18.8699C51.674 18.2804 50.9663 17.8158 50.1884 17.5033C49.4106 17.1908 48.5782 17.0366 47.74 17.0499C46.851 17.0153 45.9641 17.1605 45.1326 17.4769C44.3011 17.7932 43.5419 18.2742 42.9007 18.8909C42.2595 19.5077 41.7494 20.2475 41.401 21.0661C41.0525 21.8847 40.8729 22.7652 40.8729 23.6549C40.8729 24.5446 41.0525 25.4251 41.401 26.2437C41.7494 27.0623 42.2595 27.8022 42.9007 28.4189C43.5419 29.0357 44.3011 29.5166 45.1326 29.833C45.9641 30.1493 46.851 30.2945 47.74 30.2599C48.5954 30.2941 49.4484 30.1469 50.2429 29.8281C51.0374 29.5092 51.7555 29.0259 52.35 28.4099C53.4001 27.2563 53.9596 25.7391 53.91 24.1799C53.9136 23.8046 53.8834 23.4298 53.82 23.0599H47.74ZM93.05 24.4599C92.7892 23.6927 92.3015 23.0227 91.6515 22.5388C91.0015 22.0548 90.2198 21.7797 89.41 21.7499C88.863 21.7489 88.3216 21.86 87.8192 22.0765C87.3169 22.2929 86.8643 22.6101 86.4894 23.0085C86.1145 23.4068 85.8252 23.8778 85.6396 24.3923C85.4539 24.9068 85.3758 25.454 85.41 25.9999C85.4014 26.9128 85.6884 27.8039 86.2281 28.5402C86.7678 29.2765 87.5312 29.8184 88.4042 30.0851C89.2773 30.3517 90.2132 30.3288 91.0722 30.0196C91.9311 29.7105 92.667 29.1318 93.17 28.3699L91.72 27.3699C91.5038 27.7302 91.1972 28.0277 90.8306 28.2329C90.464 28.4382 90.0501 28.544 89.63 28.5399C89.1965 28.5578 88.7678 28.4442 88.4002 28.214C88.0325 27.9837 87.7431 27.6477 87.57 27.2499L93.26 24.8999L93.05 24.4599ZM87.25 25.8799C87.2297 25.5693 87.2716 25.2578 87.3733 24.9635C87.4749 24.6693 87.6342 24.3983 87.8419 24.1664C88.0495 23.9346 88.3014 23.7464 88.5827 23.6131C88.8639 23.4798 89.169 23.4039 89.48 23.3899C89.8022 23.3703 90.123 23.4461 90.4023 23.608C90.6816 23.7699 90.9069 24.0106 91.05 24.2999L87.25 25.8799ZM82.63 29.9999H84.5V17.4999H82.63V29.9999ZM79.57 22.6999H79.5C79.2206 22.3818 78.8759 22.1277 78.4893 21.9551C78.1027 21.7825 77.6833 21.6955 77.26 21.6999C76.1672 21.7529 75.1366 22.2243 74.382 23.0165C73.6273 23.8087 73.2063 24.8608 73.2063 25.9549C73.2063 27.049 73.6273 28.1012 74.382 28.8933C75.1366 29.6855 76.1672 30.1569 77.26 30.2099C77.6839 30.2184 78.1046 30.1332 78.4918 29.9603C78.879 29.7875 79.2233 29.5312 79.5 29.2099H79.57V29.8199C79.57 31.4499 78.7 32.3199 77.3 32.3199C76.8323 32.3096 76.3782 32.1606 75.9954 31.8918C75.6126 31.6229 75.3183 31.2464 75.15 30.8099L73.53 31.4799C73.8295 32.2322 74.3502 32.8758 75.0234 33.3258C75.6965 33.7757 76.4904 34.0108 77.3 33.9999C79.49 33.9999 81.3 32.7099 81.3 29.5699V21.9999H79.57V22.6999ZM77.42 28.5799C76.7648 28.5391 76.1498 28.25 75.7003 27.7716C75.2508 27.2932 75.0005 26.6614 75.0005 26.0049C75.0005 25.3485 75.2508 24.7167 75.7003 24.2383C76.1498 23.7598 76.7648 23.4708 77.42 23.4299C77.7402 23.4437 78.0544 23.5218 78.3438 23.6596C78.6333 23.7973 78.8921 23.9918 79.1048 24.2316C79.3175 24.4714 79.4798 24.7515 79.5821 25.0553C79.6843 25.3591 79.7244 25.6803 79.7 25.9999C79.7273 26.3206 79.6892 26.6435 79.5881 26.9491C79.4871 27.2546 79.3251 27.5365 79.1119 27.7777C78.8988 28.0189 78.639 28.2143 78.3482 28.3522C78.0574 28.4901 77.7416 28.5676 77.42 28.5799ZM101.81 17.4999H97.33V29.9999H99.2V25.2599H101.81C102.343 25.2982 102.878 25.2263 103.382 25.0487C103.886 24.871 104.348 24.5915 104.739 24.2274C105.13 23.8634 105.442 23.4227 105.655 22.9328C105.869 22.4428 105.979 21.9142 105.979 21.3799C105.979 20.8456 105.869 20.317 105.655 19.8271C105.442 19.3372 105.13 18.8965 104.739 18.5324C104.348 18.1684 103.886 17.8888 103.382 17.7112C102.878 17.5336 102.343 17.4616 101.81 17.4999ZM101.81 23.4999H99.2V19.2399H101.85C102.131 19.2399 102.409 19.2953 102.669 19.4028C102.929 19.5104 103.164 19.668 103.363 19.8667C103.562 20.0654 103.72 20.3013 103.827 20.561C103.935 20.8206 103.99 21.0989 103.99 21.3799C103.99 21.661 103.935 21.9392 103.827 22.1989C103.72 22.4585 103.562 22.6944 103.363 22.8931C103.164 23.0918 102.929 23.2495 102.669 23.357C102.409 23.4646 102.131 23.5199 101.85 23.5199L101.81 23.4999ZM113.35 21.7099C112.669 21.6679 111.991 21.8265 111.399 22.1659C110.807 22.5054 110.328 23.0109 110.02 23.6199L111.67 24.3099C111.837 24.0093 112.087 23.7634 112.39 23.602C112.694 23.4405 113.038 23.3703 113.38 23.3999C113.617 23.3722 113.858 23.392 114.088 23.4582C114.317 23.5245 114.531 23.6358 114.718 23.7856C114.904 23.9355 115.058 24.1209 115.172 24.3311C115.286 24.5413 115.356 24.7721 115.38 25.0099V25.1299C114.779 24.8138 114.109 24.6491 113.43 24.6499C111.65 24.6499 109.83 25.6499 109.83 27.4699C109.848 27.8568 109.943 28.2361 110.11 28.5855C110.277 28.9348 110.513 29.247 110.803 29.5035C111.093 29.7601 111.431 29.9557 111.799 30.0787C112.166 30.2018 112.554 30.2498 112.94 30.2199C113.409 30.2459 113.877 30.1466 114.295 29.9322C114.713 29.7178 115.067 29.3961 115.32 28.9999H115.38V29.9999H117.18V25.1899C117.18 22.9999 115.52 21.7299 113.39 21.7299L113.35 21.7099ZM113.12 28.5599C112.51 28.5599 111.66 28.2499 111.66 27.4999C111.66 26.4999 112.72 26.1599 113.66 26.1599C114.254 26.1453 114.841 26.2903 115.36 26.5799C115.297 27.123 115.04 27.6249 114.635 27.9926C114.231 28.3604 113.707 28.569 113.16 28.5799L113.12 28.5599ZM123.74 21.9999L121.6 27.4199H121.54L119.32 21.9999H117.32L120.65 29.5799L118.75 33.7899H120.7L125.82 21.9999H123.74ZM106.94 29.9999H108.8V17.4999H106.94V29.9999Z" fill="white"/>
<path d="M20.72 19.4199L10.07 30.7199C10.1864 31.1473 10.3994 31.5423 10.6926 31.8742C10.9859 32.2062 11.3516 32.4663 11.7613 32.6345C12.1711 32.8026 12.6141 32.8744 13.056 32.8441C13.4979 32.8138 13.927 32.6824 14.31 32.4599L26.31 25.5399L20.72 19.4199Z" fill="#EA4335"/>
<path d="M31.49 17.5L26.31 14.5L20.49 19.69L26.33 25.54L31.48 22.54C31.9378 22.2948 32.3205 21.93 32.5873 21.4845C32.8541 21.0389 32.995 20.5293 32.995 20.01C32.995 19.4907 32.8541 18.9811 32.5873 18.5355C32.3205 18.09 31.9378 17.7252 31.48 17.48L31.49 17.5Z" fill="#FBBC04"/>
<path d="M10.07 9.28027C10.0171 9.51648 9.99359 9.75831 9.99999 10.0003V30.0003C10.0017 30.2502 10.0353 30.4989 10.1 30.7403L21.1 19.7403L10.07 9.28027Z" fill="#4285F4"/>
<path d="M20.8 19.9996L26.31 14.4896L14.31 7.54965C13.8591 7.28165 13.3445 7.14002 12.82 7.13965C12.1873 7.14146 11.5728 7.35082 11.0706 7.73558C10.5684 8.12035 10.2063 8.65927 10.04 9.26965L20.8 19.9996Z" fill="#34A853"/>
</g>
<defs>
<clipPath id="clip0_272_6183">
<rect width="135" height="40" fill="white"/>
</clipPath>
</defs>
</svg>
