<svg width="21" height="21" viewBox="0 0 21 21" fill="none" xmlns="http://www.w3.org/2000/svg">
<g clip-path="url(#clip0_2044_6109)">
<path d="M11.03 3.98344C11.0246 4.3954 10.692 4.72805 10.28 4.73344C9.86805 4.72805 9.5354 4.3954 9.53001 3.98344V1.27344C9.53001 0.859224 9.8658 0.523438 10.28 0.523438C10.6942 0.523438 11.03 0.859224 11.03 1.27344V3.98344Z" fill="#E5B30C"/>
<path fill-rule="evenodd" clip-rule="evenodd" d="M10.35 5.65344H10.28C8.36993 5.61881 6.60708 6.6756 5.73746 8.37657C4.86784 10.0775 5.04346 12.1254 6.19 13.6534C7.18881 14.99 7.74475 16.6053 7.78 18.2734C7.93959 19.5326 9.01075 20.4766 10.28 20.4766C11.5492 20.4766 12.6204 19.5326 12.78 18.2734C12.727 16.6725 13.2247 15.1017 14.19 13.8234C14.8713 12.9694 15.2542 11.9157 15.28 10.8234C15.3143 8.04686 13.1251 5.75104 10.35 5.65344ZM10.28 19.2734C9.72772 19.2734 9.28 18.8257 9.28 18.2734V18.0134H11.34V18.2934C11.335 18.5659 11.2191 18.8245 11.019 19.0095C10.8189 19.1945 10.552 19.2898 10.28 19.2734Z" fill="#E5B30C"/>
<path d="M10.28 5.65344L10.33 7.15344C11.6785 7.17365 12.8984 7.95837 13.4759 9.17713C14.0535 10.3959 13.8883 11.8369 13.05 12.8934C12.2404 13.9407 11.6981 15.1695 11.47 16.4734H9.07C8.76923 15.1289 8.19759 13.8597 7.39 12.7434C6.62265 11.6632 6.52286 10.2448 7.13141 9.06769C7.73995 7.89061 8.95492 7.15195 10.28 7.15344V5.65344Z" fill="#E5B30C"/>
<path d="M17.59 3.39344C17.2972 3.10098 16.8228 3.10098 16.53 3.39344L14.66 5.25344C14.3717 5.55185 14.3717 6.02503 14.66 6.32344C14.9624 6.60174 15.4276 6.60174 15.73 6.32344L17.59 4.45344C17.8825 4.16062 17.8825 3.68625 17.59 3.39344Z" fill="#E5B30C"/>
<path d="M17 9.55344H19.63C20.0442 9.55344 20.38 9.88922 20.38 10.3034C20.38 10.7177 20.0442 11.0534 19.63 11.0534H17C16.5858 11.0534 16.25 10.7177 16.25 10.3034C16.25 9.88922 16.5858 9.55344 17 9.55344Z" fill="#E5B30C"/>
<path d="M3.38 9.55344H0.75C0.335786 9.55344 0 9.88922 0 10.3034C0 10.7177 0.335786 11.0534 0.75 11.0534H3.38C3.79421 11.0534 4.13 10.7177 4.13 10.3034C4.13 9.88922 3.79421 9.55344 3.38 9.55344Z" fill="#E5B30C"/>
<path d="M6.01438 5.78844C6.01438 5.98965 5.93353 6.18242 5.79 6.32344C5.64728 6.45956 5.45722 6.53486 5.26 6.53344C5.06297 6.53382 4.87329 6.45867 4.73 6.32344L2.87 4.45344C2.66935 4.26647 2.58675 3.98488 2.65462 3.71915C2.72248 3.45341 2.92998 3.24592 3.19571 3.17805C3.46145 3.11019 3.74303 3.19278 3.93 3.39344L5.79 5.25344C5.93353 5.39445 6.01438 5.58722 6.01438 5.78844Z" fill="#E5B30C"/>
</g>
<defs>
<clipPath id="clip0_2044_6109">
<rect width="20.38" height="19.9531" fill="white" transform="translate(0 0.523438)"/>
</clipPath>
</defs>
</svg>
