<svg width="24" height="24" viewBox="0 0 24 24" fill="none" xmlns="http://www.w3.org/2000/svg">
<path d="M12.5 19C12.5 18.7239 12.2761 18.5 12 18.5C11.7239 18.5 11.5 18.7239 11.5 19C11.5 19.2761 11.7239 19.5 12 19.5C12.2761 19.5 12.5 19.2761 12.5 19Z" fill="#010101" stroke="#010101"/>
<path d="M8 8.13741C8 5.85238 9.79086 4 12 4C14.2091 4 16 5.85238 16 8.13741C16 9.51717 15.347 10.7392 14.3433 11.4909C13.7867 11.9077 13.1182 12.1554 12.648 12.6812C12.0712 13.3261 11.9877 14.142 12 15" stroke="#010101" stroke-width="1.5" stroke-linecap="round" stroke-linejoin="round"/>
</svg>
