<svg width="24" height="25" viewBox="0 0 24 25" fill="none" xmlns="http://www.w3.org/2000/svg">
<path fill-rule="evenodd" clip-rule="evenodd" d="M10.1244 5.05018C10.4124 4.11856 11.2793 3.4877 12.2544 3.50018C13.2349 3.49033 14.1036 4.13063 14.3844 5.07018L15.0444 7.07018C15.3408 7.99581 16.2025 8.62289 17.1744 8.62018H19.2544C20.2492 8.58249 21.1495 9.20582 21.4643 10.1502C21.7791 11.0946 21.4328 12.1335 20.6144 12.7002L18.9044 13.9502C18.1162 14.5163 17.7846 15.5272 18.0844 16.4502L18.7444 18.4502C18.9712 19.1425 18.8487 19.9019 18.4157 20.4878C17.9827 21.0737 17.2928 21.4137 16.5644 21.4002C16.092 21.3966 15.6331 21.2425 15.2544 20.9602L13.6144 19.7102C12.8279 19.1365 11.7609 19.1365 10.9744 19.7102L9.25439 20.9602C8.87111 21.2686 8.39625 21.4409 7.90439 21.4502C7.17067 21.4563 6.48006 21.1042 6.05396 20.5069C5.62785 19.9095 5.51978 19.142 5.76439 18.4502L6.42439 16.4502C6.74237 15.53 6.42662 14.5098 5.64439 13.9302L3.93439 12.6802C3.14176 12.1115 2.8083 11.0953 3.10992 10.1675C3.41154 9.23983 4.27889 8.61399 5.25439 8.62018H7.33439C8.31172 8.62014 9.17514 7.98372 9.46439 7.05018L10.1244 5.05018ZM12.7844 5.57018C12.7229 5.33072 12.5013 5.16766 12.2544 5.18018C11.9952 5.17131 11.7691 5.35474 11.7244 5.61018L11.0644 7.61018C10.5399 9.2265 9.03368 10.3208 7.33439 10.3202H5.21439C4.97875 10.327 4.77259 10.4806 4.69871 10.7045C4.62484 10.9283 4.69907 11.1745 4.88439 11.3202L6.59439 12.5702C7.97367 13.5678 8.55146 15.3416 8.02439 16.9602L7.36439 18.9602C7.29957 19.1244 7.32617 19.3107 7.43439 19.4502C7.54661 19.6117 7.72786 19.7116 7.92439 19.7202C8.04441 19.7166 8.1601 19.6745 8.25439 19.6002L9.94439 18.3502C11.3218 17.3494 13.187 17.3494 14.5644 18.3502L16.2344 19.5402C16.3287 19.6145 16.4444 19.6566 16.5644 19.6602C16.752 19.648 16.9244 19.5526 17.0344 19.4002C17.1426 19.2607 17.1692 19.0744 17.1044 18.9102L16.4444 16.9102C15.9173 15.2916 16.4951 13.5178 17.8744 12.5202L19.5844 11.2802C19.7697 11.1345 19.8439 10.8883 19.7701 10.6645C19.6962 10.4406 19.49 10.287 19.2544 10.2802H17.1744C15.4751 10.2808 13.9689 9.1865 13.4444 7.57018L12.7844 5.57018Z" fill="#E5B30C"/>
</svg>
