<svg width="25" height="25" viewBox="0 0 25 25" fill="none" xmlns="http://www.w3.org/2000/svg">
<g clip-path="url(#clip0_505_7101)">
<path d="M22.8458 0.145996H2.3891C1.91922 0.145996 1.46859 0.332654 1.13634 0.664906C0.804089 0.997158 0.617432 1.44779 0.617432 1.91766V22.3743C0.617432 22.8442 0.804089 23.2948 1.13634 23.6271C1.46859 23.9593 1.91922 24.146 2.3891 24.146H22.8458C23.3156 24.146 23.7663 23.9593 24.0985 23.6271C24.4308 23.2948 24.6174 22.8442 24.6174 22.3743V1.91766C24.6174 1.44779 24.4308 0.997158 24.0985 0.664906C23.7663 0.332654 23.3156 0.145996 22.8458 0.145996ZM7.77076 20.591H4.16243V9.12933H7.77076V20.591ZM5.9641 7.541C5.5548 7.53869 5.15535 7.41519 4.81617 7.18608C4.47698 6.95698 4.21327 6.63253 4.05831 6.25368C3.90335 5.87484 3.86408 5.45859 3.94546 5.05745C4.02685 4.65631 4.22523 4.28827 4.51559 3.99978C4.80594 3.71128 5.17525 3.51526 5.5769 3.43646C5.97855 3.35765 6.39454 3.39959 6.77238 3.55698C7.15022 3.71437 7.47297 3.98016 7.6999 4.32081C7.92682 4.66145 8.04775 5.06169 8.04743 5.471C8.05129 5.74503 7.99994 6.01704 7.89644 6.2708C7.79294 6.52457 7.63941 6.7549 7.445 6.94806C7.25059 7.14123 7.01928 7.29328 6.76486 7.39515C6.51043 7.49701 6.2381 7.54662 5.9641 7.541ZM21.0708 20.601H17.4641V14.3393C17.4641 12.4927 16.6791 11.9227 15.6658 11.9227C14.5958 11.9227 13.5458 12.7293 13.5458 14.386V20.601H9.93743V9.13766H13.4074V10.726H13.4541C13.8024 10.021 15.0224 8.816 16.8841 8.816C18.8974 8.816 21.0724 10.011 21.0724 13.511L21.0708 20.601Z" fill="#0A66C2"/>
</g>
<defs>
<clipPath id="clip0_505_7101">
<rect width="24" height="24" fill="white" transform="translate(0.617432 0.145996)"/>
</clipPath>
</defs>
</svg>
