<svg width="25" height="24" viewBox="0 0 25 24" fill="none" xmlns="http://www.w3.org/2000/svg">
<path d="M22.3359 5.90692C21.5863 6.2343 20.7924 6.44896 19.9799 6.54392C20.8327 6.04315 21.474 5.24903 21.7839 4.30992C20.9759 4.78025 20.0947 5.11152 19.1769 5.28992C18.7905 4.88513 18.3256 4.56331 17.8107 4.3441C17.2958 4.12489 16.7416 4.01289 16.1819 4.01492C13.9159 4.01492 12.0789 5.82492 12.0789 8.05492C12.0789 8.37092 12.1149 8.67992 12.1849 8.97492C10.5595 8.89761 8.96805 8.48233 7.51211 7.75556C6.05616 7.02879 4.7677 6.0065 3.72894 4.75392C3.36476 5.36832 3.17335 6.0697 3.17494 6.78392C3.17563 7.45189 3.34277 8.10915 3.66123 8.69631C3.97969 9.28348 4.43944 9.78203 4.99894 10.1469C4.34842 10.1259 3.71196 9.95225 3.14094 9.63992V9.68992C3.14094 11.6479 4.55594 13.2809 6.43094 13.6529C6.07855 13.7464 5.71552 13.7938 5.35094 13.7939C5.08594 13.7939 4.82894 13.7689 4.57794 13.7189C4.84602 14.5268 5.35904 15.2312 6.04576 15.7343C6.73247 16.2373 7.55878 16.514 8.40994 16.5259C6.95001 17.6505 5.15776 18.258 3.31494 18.2529C2.98294 18.2529 2.65694 18.2329 2.33594 18.1969C4.21719 19.3876 6.39853 20.0182 8.62494 20.0149C16.1719 20.0149 20.2979 13.8579 20.2979 8.51892L20.2839 7.99592C21.0888 7.42959 21.7841 6.72177 22.3359 5.90692Z" fill="white"/>
</svg>
